<svg width="354" height="87" viewBox="0 0 354 87" fill="none" xmlns="http://www.w3.org/2000/svg">
<path d="M105.455 38.733V49.0565H103.151V34.4546H105.04L113.296 45.0023V34.4744H115.599V49.0565H113.608L105.455 38.733Z" fill="white"/>
<path d="M128.883 47.0228V49.0565H118.883V34.4546H128.695V36.4916H121.203V40.6678H127.711V42.5631H121.203V47.0261L128.883 47.0228Z" fill="white"/>
<path d="M136.437 34.5168H138.592L140.399 39.494L142.205 34.5168H144.38L141.876 40.9971L144.054 46.3863L148.612 34.4575H151.116L145.16 49.0594H143.143L140.412 42.5199L137.661 49.0594H135.651L129.695 34.4575H132.199L136.756 46.3863L138.941 40.9971L136.437 34.5168Z" fill="white"/>
<path d="M169.163 34.4546V49.0565H166.86V42.6191H159.513V49.0565H157.193V34.4546H159.513V40.5623H166.863V34.4546H169.163Z" fill="white"/>
<path d="M182.444 47.0228V49.0565H172.447V34.4546H182.259V36.4916H174.767V40.6678H181.275V42.5631H174.767V47.0261L182.444 47.0228Z" fill="white"/>
<path d="M184.826 49.0563V34.4543H191.183C191.809 34.4476 192.427 34.5887 192.989 34.8664C193.531 35.1343 194.016 35.5048 194.417 35.9574C194.819 36.4074 195.139 36.9252 195.361 37.4868C195.58 38.034 195.691 38.6181 195.69 39.2074C195.695 39.8438 195.576 40.475 195.342 41.0664C195.121 41.6338 194.785 42.1491 194.354 42.5793C193.929 42.9994 193.414 43.3163 192.847 43.5056L196.276 49.0563H193.687L190.524 43.9637H187.145V49.0431L184.826 49.0563ZM187.145 41.9399H191.15C191.558 41.9457 191.956 41.812 192.278 41.5608C192.614 41.2992 192.882 40.9599 193.058 40.572C193.255 40.1478 193.354 39.6849 193.348 39.2173C193.352 38.7576 193.246 38.3036 193.039 37.8935C192.831 37.4834 192.529 37.1291 192.157 36.8605C191.827 36.6249 191.432 36.4992 191.028 36.5012H187.145V41.9399Z" fill="white"/>
<path d="M198.398 49.0565V34.4546H200.725V49.0565H198.398Z" fill="white"/>
<path d="M214.676 36.4916H209.833V49.0565H207.529V36.4916H202.647V34.4546H214.676V36.4916Z" fill="white"/>
<path d="M219.46 34.4546H221.638L227.304 49.0565H224.883L223.458 45.1011H217.627L216.196 49.0565H213.774L219.46 34.4546ZM222.846 43.3805L220.543 36.986L218.239 43.3805H222.846Z" fill="white"/>
<path d="M234.51 49.1585C233.58 49.1646 232.661 48.9619 231.819 48.5652C230.988 48.1671 230.246 47.6068 229.634 46.9171C229.007 46.2187 228.513 45.411 228.177 44.534C227.826 43.6247 227.648 42.6576 227.653 41.6828C227.638 39.7783 228.343 37.9387 229.628 36.5343C230.246 35.8573 230.993 35.3115 231.826 34.929C232.685 34.5331 233.621 34.3327 234.566 34.3423C235.798 34.2998 237.017 34.6023 238.087 35.2158C239.007 35.7651 239.751 36.5654 240.232 37.5231L238.466 38.7987C238.109 38.0498 237.536 37.426 236.82 37.0089C236.118 36.6114 235.324 36.4057 234.517 36.4123C233.865 36.4023 233.221 36.5504 232.638 36.8441C232.089 37.1352 231.608 37.5396 231.227 38.0307C230.823 38.5407 230.513 39.1189 230.312 39.7381C230.094 40.3836 229.983 41.0606 229.983 41.7422C229.977 42.4495 230.095 43.1524 230.332 43.8187C230.552 44.4415 230.887 45.0173 231.319 45.5162C231.733 45.9967 232.243 46.3851 232.816 46.6567C233.393 46.9329 234.026 47.0738 234.665 47.0687C235.473 47.0723 236.267 46.8631 236.968 46.4622C237.755 45.9956 238.442 45.3772 238.989 44.6428V46.9863C237.712 48.4366 236.219 49.1607 234.51 49.1585ZM238.739 43.3803H235.702V41.6565H240.69V49.0596H238.739V43.3803Z" fill="white"/>
<path d="M253.315 47.0228V49.0565H243.319V34.4546H253.131V36.4916H245.639V40.6678H252.147V42.5631H245.639V47.0261L253.315 47.0228Z" fill="white"/>
<path d="M260.768 49.0562V34.4543H266.888C267.514 34.4483 268.133 34.5894 268.694 34.8663C269.783 35.4155 270.631 36.3489 271.073 37.4867C271.289 38.0347 271.401 38.6183 271.402 39.2073C271.406 40.0086 271.22 40.7992 270.859 41.5146C270.509 42.2291 269.983 42.8418 269.329 43.2945C268.652 43.7584 267.847 43.9992 267.026 43.9834H263.088V49.0628L260.768 49.0562ZM263.071 41.9398H266.862C267.267 41.9467 267.663 41.8206 267.99 41.5805C268.332 41.3242 268.602 40.9835 268.773 40.5917C268.969 40.1477 269.067 39.6664 269.06 39.181C269.071 38.6915 268.957 38.2072 268.731 37.7735C268.531 37.3913 268.237 37.0659 267.878 36.8275C267.546 36.6093 267.157 36.4946 266.76 36.4979H263.088L263.071 41.9398Z" fill="white"/>
<path d="M279.595 49.1586C278.623 49.1711 277.661 48.9602 276.782 48.5422C275.942 48.1377 275.191 47.5683 274.574 46.8678C273.332 45.4548 272.643 43.6384 272.636 41.7555C272.633 40.8013 272.814 39.8555 273.169 38.9703C273.517 38.0972 274.021 37.2952 274.656 36.6036C275.284 35.9177 276.037 35.3583 276.874 34.9555C277.744 34.5446 278.696 34.3372 279.658 34.3491C280.642 34.3347 281.616 34.5526 282.501 34.9852C283.334 35.4045 284.077 35.9848 284.686 36.6926C285.296 37.3976 285.776 38.2057 286.104 39.079C286.765 40.8475 286.757 42.7976 286.081 44.5605C285.752 45.4358 285.26 46.2402 284.63 46.9304C284.006 47.6205 283.252 48.1805 282.412 48.5785C281.528 48.9801 280.566 49.1784 279.595 49.1586ZM274.989 41.7555C274.989 42.4381 275.1 43.1162 275.318 43.7628C275.52 44.3827 275.833 44.9603 276.242 45.4669C276.637 45.9625 277.134 46.3663 277.7 46.6503C278.302 46.9472 278.967 47.0953 279.638 47.0821C280.323 47.0969 281.002 46.9418 281.612 46.6305C282.182 46.3354 282.68 45.9179 283.07 45.4076C283.468 44.8915 283.774 44.3105 283.975 43.6903C284.178 43.0656 284.281 42.4126 284.281 41.7555C284.283 41.077 284.172 40.4029 283.952 39.7613C283.738 39.1447 283.419 38.5702 283.008 38.0638C282.605 37.5709 282.104 37.1679 281.537 36.8805C280.93 36.5923 280.266 36.4447 279.594 36.4487C278.923 36.4526 278.261 36.6081 277.657 36.9036C277.094 37.2 276.6 37.6136 276.21 38.1165C275.811 38.628 275.506 39.2061 275.308 39.824C275.101 40.4469 274.996 41.099 274.995 41.7555H274.989Z" fill="white"/>
<path d="M288.999 49.0565V34.4546H291.319V47.0228H299.107V49.0565H288.999Z" fill="white"/>
<path d="M305.198 34.4546H307.373L313.039 49.0565H310.624L309.199 45.1011H303.362L301.931 49.0565H299.509L305.198 34.4546ZM308.58 43.3805L306.277 36.986L303.974 43.3805H308.58Z" fill="white"/>
<path d="M317.165 38.733V49.0565H314.862V34.4546H316.75L325.003 45.0023V34.4744H327.306V49.0565H325.332L317.165 38.733Z" fill="white"/>
<path d="M330.593 49.0562V34.4543H335.766C337.143 34.4066 338.506 34.7494 339.698 35.4432C340.726 36.0745 341.55 36.9903 342.07 38.0801C342.613 39.2269 342.886 40.4829 342.87 41.752C342.902 43.0931 342.603 44.4215 341.998 45.6184C341.438 46.6918 340.578 47.5784 339.523 48.1696C338.371 48.7931 337.075 49.1045 335.766 49.0727L330.593 49.0562ZM340.53 41.7355C340.549 40.799 340.355 39.8704 339.964 39.0195C339.609 38.262 339.046 37.6208 338.342 37.1704C337.567 36.6989 336.672 36.463 335.766 36.4913H332.913V47.0225H335.766C336.682 47.0524 337.585 46.8079 338.362 46.3204C339.068 45.8567 339.628 45.2002 339.974 44.4285C340.355 43.5826 340.545 42.6632 340.53 41.7355Z" fill="white"/>
<path d="M20.0828 38.405V64.3405L14.9005 60.5932V40.7447C14.9005 39.453 15.944 38.405 17.233 38.405H20.0828Z" fill="white"/>
<path d="M36.0258 16.1746L65.2434 30.9413C64.8483 31.6005 64.0018 32.8528 62.8919 33.5757C61.3469 34.5917 58.9836 34.8776 58.9836 34.8776C58.9836 34.8776 58.9037 36.2267 56.578 36.6331C55.1025 36.8824 53.6042 36.9671 52.1101 36.8859C51.8172 33.2346 50.1646 29.8287 47.4824 27.3477C44.4194 24.4973 40.391 22.9259 36.2162 22.9531C27.7978 22.9531 20.9031 29.0961 20.32 36.893C18.8259 36.9744 17.3275 36.8896 15.8521 36.6401C13.5241 36.2338 13.4465 34.8847 13.4465 34.8847C13.4465 34.8847 11.4101 34.5988 9.86746 33.5828C8.73873 32.8433 7.87808 31.5509 7.49713 30.9035L36.0258 16.1746Z" fill="white"/>
<path d="M65.8563 27.32C65.5904 28.2751 65.5512 29.2802 65.7419 30.2535L36.0069 15.123L7.01027 30.1884C7.18813 29.2353 7.14491 28.2534 6.88401 27.32C6.56714 26.3101 6.01575 25.3918 5.276 24.6419L36.2046 8.76416L67.4643 24.6419C66.7245 25.3918 66.1731 26.3101 65.8563 27.32Z" fill="white"/>
<path d="M49.6962 38.2993V66.2872L36.3973 75.4555L23.0441 66.2471V38.2993C23.0441 31.3937 29.0108 25.8079 36.3714 25.8079C39.8614 25.7863 43.2288 27.0949 45.7899 29.4681C47.013 30.5919 47.9913 31.9562 48.6635 33.4758C49.3356 34.9954 49.6872 36.6375 49.6962 38.2993Z" fill="white"/>
<path d="M51.9173 38.405V64.3405L57.84 60.5908V40.7447C57.84 39.453 56.6474 38.405 55.1743 38.405H51.9173Z" fill="white"/>
</svg>
